<?xml version="1.0" standalone="no"?>
<!DOCTYPE svg PUBLIC "-//W3C//DTD SVG 20010904//EN"
 "http://www.w3.org/TR/2001/REC-SVG-20010904/DTD/svg10.dtd">
<svg version="1.0" xmlns="http://www.w3.org/2000/svg"
 width="512.000000pt" height="512.000000pt" viewBox="0 0 512.000000 512.000000"
 preserveAspectRatio="xMidYMid meet">
<metadata>
Created by potrace 1.14, written by Peter Selinger 2001-2017
</metadata>
<g transform="translate(0.000000,512.000000) scale(0.100000,-0.100000)"
fill="#000000" stroke="none">
<path d="M3455 3916 c-16 -12 -18 -29 -18 -190 l0 -176 -31 0 c-447 -4 -535
-8 -596 -24 -96 -25 -169 -54 -223 -87 -26 -16 -49 -29 -52 -29 -3 0 -13 -8
-23 -17 -10 -10 -32 -30 -48 -44 -27 -24 -112 -115 -144 -155 -70 -88 -180
-293 -284 -532 -182 -415 -266 -546 -394 -611 -62 -32 -82 -34 -342 -38 -223
-3 -246 -5 -261 -22 -12 -15 -15 -50 -14 -206 0 -166 2 -188 18 -200 13 -10
79 -12 285 -10 233 2 277 5 343 23 155 42 262 104 375 220 136 139 220 281
387 657 152 344 199 427 292 520 103 104 125 109 446 112 l266 3 0 -173 c0
-95 3 -179 7 -186 13 -20 49 -30 71 -18 29 14 570 558 579 581 3 11 0 28 -7
40 -8 12 -140 146 -293 299 -189 188 -284 277 -299 277 -12 0 -30 -6 -40 -14z"/>
<path d="M1054 3540 c-12 -5 -23 -14 -26 -22 -3 -7 -4 -95 -4 -195 1 -152 4
-185 17 -198 13 -14 47 -16 231 -15 285 0 354 -15 452 -101 60 -53 137 -170
161 -244 l18 -59 21 44 c56 122 149 312 181 367 l35 61 -47 59 c-131 161 -266
249 -453 295 -53 13 -555 20 -586 8z"/>
<path d="M2495 2292 c-45 -103 -142 -293 -172 -339 -14 -20 -12 -25 29 -69
115 -127 174 -173 288 -228 150 -72 236 -84 576 -85 l221 -1 1 -152 c0 -201 0
-194 18 -212 37 -37 53 -25 348 270 157 158 286 290 287 293 0 3 2 15 4 26 3
15 -68 92 -285 309 -303 302 -317 313 -358 273 -13 -14 -15 -45 -15 -192 l0
-176 -256 4 c-141 2 -269 7 -285 11 -44 11 -122 53 -159 86 -40 34 -121 150
-164 232 l-30 57 -48 -107z"/>
</g>
</svg>
